<svg width="553" height="553" viewBox="0 0 553 553" fill="none" xmlns="http://www.w3.org/2000/svg">
<path d="M283.2 133.912C262.588 135.033 196.849 94.1162 135.564 86.8283C74.279 79.5404 40.8814 121.706 57.0394 159.822C73.1974 197.937 109.964 201.861 109.964 280.894C109.964 359.928 163.576 318.505 180.692 351.393C205.245 398.573 218.314 424.324 226.34 445.002C241.133 483.115 298.243 453.41 325.543 445.002C352.843 436.594 357.751 487.2 409.006 456.932C460.262 426.663 424.361 414.651 437.732 371.491C451.104 328.33 454.031 377.811 487.106 253.303C520.181 128.794 487.106 113.171 464.264 103.643C441.422 94.1151 373.452 86.8288 353.397 94.1151C333.342 101.401 303.812 132.791 283.2 133.912Z" fill="#FFF9D2"/>
<path d="M170.882 187.441L42.7205 261.435L42.7206 113.447L170.882 187.441Z" fill="#BDDEFF"/>
<path d="M552.106 329.559C552.106 358.034 529.022 381.118 500.547 381.118C472.072 381.118 448.988 358.034 448.988 329.559C448.988 301.083 472.072 278 500.547 278C529.022 278 552.106 301.083 552.106 329.559ZM477.745 329.559C477.745 342.152 487.954 352.36 500.547 352.36C513.14 352.36 523.348 342.152 523.348 329.559C523.348 316.966 513.14 306.757 500.547 306.757C487.954 306.757 477.745 316.966 477.745 329.559Z" fill="#D4AC21"/>
<rect x="398.987" y="107.315" width="82.3564" height="82.3564" transform="rotate(-15 398.987 107.315)" fill="#6488BD"/>
<rect x="240.046" y="387.038" width="111.303" height="45.4397" rx="19" transform="rotate(-150.722 240.046 387.038)" stroke="#A58200" stroke-width="22"/>
<path d="M93.6168 311.548C89.0301 311.548 85.4754 310.287 82.9528 307.764C80.5448 305.241 79.3408 301.687 79.3408 297.1V201.64C79.3408 196.939 80.6594 193.384 83.2968 190.976C85.9341 188.453 89.6608 187.192 94.4768 187.192C98.4901 187.192 101.643 187.995 103.937 189.6C106.345 191.091 108.523 193.613 110.473 197.168L147.453 263.56H141.433L178.241 197.168C180.305 193.613 182.483 191.091 184.777 189.6C187.185 187.995 190.395 187.192 194.409 187.192C198.995 187.192 202.493 188.453 204.901 190.976C207.423 193.384 208.685 196.939 208.685 201.64V297.1C208.685 301.687 207.481 305.241 205.073 307.764C202.665 310.287 199.11 311.548 194.409 311.548C189.822 311.548 186.267 310.287 183.745 307.764C181.337 305.241 180.133 301.687 180.133 297.1V237.932H183.745L156.053 286.092C154.447 288.615 152.727 290.507 150.893 291.768C149.173 293.029 146.822 293.66 143.841 293.66C140.974 293.66 138.623 293.029 136.789 291.768C134.954 290.507 133.291 288.615 131.801 286.092L103.937 237.76H107.893V297.1C107.893 301.687 106.689 305.241 104.281 307.764C101.873 310.287 98.3181 311.548 93.6168 311.548ZM275.04 311.892C264.72 311.892 255.776 310.115 248.208 306.56C240.755 302.891 235.022 297.731 231.008 291.08C226.995 284.429 224.988 276.575 224.988 267.516C224.988 258.801 226.88 251.176 230.664 244.64C234.563 237.989 239.838 232.829 246.488 229.16C253.254 225.376 260.936 223.484 269.536 223.484C275.843 223.484 281.576 224.516 286.736 226.58C291.896 228.529 296.311 231.453 299.98 235.352C303.65 239.136 306.402 243.723 308.236 249.112C310.186 254.501 311.16 260.521 311.16 267.172C311.16 269.465 310.53 271.185 309.268 272.332C308.007 273.364 306 273.88 303.248 273.88H250.616V259.432H288.8L286.048 261.668C286.048 257.425 285.475 253.985 284.328 251.348C283.182 248.711 281.462 246.704 279.168 245.328C276.99 243.952 274.238 243.264 270.912 243.264C267.358 243.264 264.262 244.124 261.624 245.844C259.102 247.449 257.152 249.857 255.776 253.068C254.4 256.279 253.712 260.292 253.712 265.108V266.656C253.712 274.797 255.49 280.645 259.044 284.2C262.714 287.64 268.332 289.36 275.9 289.36C278.423 289.36 281.29 289.073 284.5 288.5C287.826 287.812 290.979 286.895 293.96 285.748C296.942 284.601 299.522 284.429 301.7 285.232C303.879 285.92 305.542 287.181 306.688 289.016C307.95 290.736 308.638 292.743 308.752 295.036C308.867 297.215 308.351 299.393 307.204 301.572C306.058 303.636 304.166 305.241 301.528 306.388C297.515 308.223 293.215 309.599 288.628 310.516C284.156 311.433 279.627 311.892 275.04 311.892ZM342.239 311.548C337.193 311.548 333.295 310.172 330.543 307.42C327.791 304.553 326.415 300.597 326.415 295.552V204.736C326.415 199.576 327.791 195.62 330.543 192.868C333.409 190.116 337.365 188.74 342.411 188.74H384.723C398.483 188.74 409.089 192.295 416.543 199.404C424.111 206.399 427.895 216.088 427.895 228.472C427.895 240.856 424.111 250.603 416.543 257.712C409.089 264.707 398.483 268.204 384.723 268.204H358.063V295.552C358.063 300.597 356.744 304.553 354.107 307.42C351.469 310.172 347.513 311.548 342.239 311.548ZM358.063 243.952H379.219C385.181 243.952 389.768 242.691 392.979 240.168C396.189 237.531 397.795 233.632 397.795 228.472C397.795 223.197 396.189 219.299 392.979 216.776C389.768 214.253 385.181 212.992 379.219 212.992H358.063V243.952ZM458.473 311.548C453.428 311.548 449.529 310.172 446.777 307.42C444.025 304.553 442.649 300.54 442.649 295.38V203.36C442.649 198.085 444.025 194.072 446.777 191.32C449.529 188.568 453.428 187.192 458.473 187.192C463.633 187.192 467.532 188.568 470.169 191.32C472.921 194.072 474.297 198.085 474.297 203.36V295.38C474.297 300.54 472.978 304.553 470.341 307.42C467.704 310.172 463.748 311.548 458.473 311.548Z" fill="#92B4EC"/>
</svg>
